<svg width="33" height="33" viewBox="0 0 33 33" fill="none" xmlns="http://www.w3.org/2000/svg">
<path d="M12.1691 10.501H22.1702V4.50035C22.1702 3.96986 21.9595 3.46109 21.5844 3.08598C21.2092 2.71086 20.7005 2.50012 20.17 2.50012H4.16814C3.63764 2.50012 3.12888 2.71086 2.75376 3.08598C2.37865 3.46109 2.16791 3.96986 2.16791 4.50035V20.5022C2.16791 21.0327 2.37865 21.5415 2.75376 21.9166C3.12888 22.2917 3.63764 22.5024 4.16814 22.5024H10.1688V12.5013C10.1688 11.9708 10.3796 11.462 10.7547 11.0869C11.1298 10.7118 11.6386 10.501 12.1691 10.501Z" fill="white"/>
<path d="M28.171 10.5011H22.1703V20.5023C22.1703 21.0327 21.9595 21.5415 21.5844 21.9166C21.2093 22.2917 20.7005 22.5025 20.17 22.5025H10.1689V28.5032C10.1689 29.0337 10.3796 29.5424 10.7547 29.9175C11.1299 30.2927 11.6386 30.5034 12.1691 30.5034H28.171C28.7015 30.5034 29.2102 30.2927 29.5853 29.9175C29.9604 29.5424 30.1712 29.0337 30.1712 28.5032V12.5013C30.1712 11.9708 29.9604 11.4621 29.5853 11.087C29.2102 10.7118 28.7015 10.5011 28.171 10.5011Z" fill="white"/>
</svg>
